<svg xmlns="http://www.w3.org/2000/svg" viewBox="0 0 180 100">
  <rect width="180" height="100" rx="6" fill="#edf2e9"/>
  <path d="M-8 76 64 20l42 7 81-22v26l-64 17-49-3-82 61z" fill="#b5d9e3"/>
  <path d="M-10 18 191 83M27-6l42 111M107-7l-27 118M151-5l-15 112" stroke="#fff" stroke-width="8"/>
  <path d="M-10 18 191 83M27-6l42 111M107-7l-27 118M151-5l-15 112" stroke="#9babb1" stroke-width="1.5"/>
  <path d="m16 32 15-8 11 8-4 12-18 2zM113 65l18-10 12 8-7 16-20 1z" fill="#d8dfcf" stroke="#aeb9aa" stroke-width="1.5"/>
  <circle cx="83" cy="48" r="5" fill="#dc7258" stroke="#fff" stroke-width="2"/>
</svg>
